# xmcd
#
# Track frame offsets: 
#        150
#        17296
#        41482
#        56346
#        76507
#        96171
#        115610
#        139778
#        162375
#        186382
#        202451
#        224677
#        238375
#        272368
#        296211
#        311173
#
# Disc length: 4331 seconds
#
# Revision: 0
# Processed by: cddbd v1.5.1PL0 Copyright (c) Steve Scherf et al.
# Submitted via: ExactAudioCopy v0.95a4
#
DISCID=ec10e910
DTITLE=MC Вспышкин and Никифоровна - I'm back
DYEAR=2004
DGENRE=Dance Hall
TTITLE0=I'm back (vs Slim Line)
TTITLE1=Davai, Davai (vs DJ Alligator Project)
TTITLE2=ДискотЭка
TTITLE3=Колбасный цех №3 Шишки
TTITLE4=Sex
TTITLE5=Колбасный цех №2
TTITLE6=Бессонница
TTITLE7=Новогодняя (меня прёт)
TTITLE8=Колбасный цех №3 (Nikiforovna remix)
TTITLE9=Хорошо
TTITLE10=КПП
TTITLE11=Davai, Davai (vs DJ Alligator Project) radio mix
TTITLE12=Колбасный цех №3 (extended remix)
TTITLE13=Меня прёт (tempo version)
TTITLE14=Sex (Slim Line version)
TTITLE15=ДискотЭка (DJ Skydreamer Flatbeat mix)
EXTD=
EXTT0=
EXTT1=
EXTT2=
EXTT3=
EXTT4=
EXTT5=
EXTT6=
EXTT7=
EXTT8=
EXTT9=
EXTT10=
EXTT11=
EXTT12=
EXTT13=
EXTT14=
EXTT15=
PLAYORDER=
